# xmcd
#
# Track frame offsets:
#	150
#	18387
#	39826
#	55452
#	77766
#	93366
#	109115
#	123530
#	141730
#	161100
#	176118
#	191606
#	207491
#	221619
#
# Disc length: 3177 seconds
#
# Revision: 1
# Processed by: cddbd v1.5.2PL0 Copyright (c) Steve Scherf et al.
# Submitted via: audiograbber 1.83.01
#
DISCID=d10c670e
DTITLE=адаламтидгс хелгс [2006] - се пяыто пкамо [лаяиос тойас]
DYEAR=2006
DGENRE=
TTITLE0=айоу ле пыс тяацоудаы
TTITLE1=памы о хеос йаты ецы
TTITLE2=еилаи ецы
TTITLE3=сам сгладеьеис аето
TTITLE4=тгс ломаниас ои сйкабои
TTITLE5=посес хакассес
TTITLE6=саббатобяадо йаи ломос
TTITLE7=г тяека лас ста йоййима
TTITLE8=л' ема вояо пистоки
TTITLE9=ои мувтес ацапаме тоус акгтес
TTITLE10=се пяыто пкамо
TTITLE11=ап' том пуяцо то кеуйо
TTITLE12=ои йокаслемои
TTITLE13=ои йкежтес йи осои ацапоум
EXTD=
EXTT0=
EXTT1=
EXTT2=
EXTT3=
EXTT4=
EXTT5=
EXTT6=
EXTT7=
EXTT8=
EXTT9=
EXTT10=
EXTT11=
EXTT12=
EXTT13=
PLAYORDER=
